<svg width="48" height="48" viewBox="0 0 48 48" fill="none" xmlns="http://www.w3.org/2000/svg">
<path d="M46.5646 29.7268C43.4265 42.3278 30.6701 49.9775 18.0855 46.8415C5.49796 43.7276 -2.16944 30.943 0.974505 18.3743C4.10522 5.7762 16.869 -1.88958 29.4463 1.24635C42.0411 4.3911 49.7085 17.1375 46.5646 29.7356L46.5646 29.7268ZM34.1299 20.6936C34.5956 17.5797 32.2156 15.8979 28.957 14.7654L30.0148 10.5484L27.435 9.89772L26.411 14.0295C25.7367 13.8533 25.0345 13.7005 24.3293 13.5404L25.3562 9.37041L22.7691 8.72853L21.7128 12.9661C21.1545 12.8354 20.6124 12.7061 20.0673 12.5768L16.5179 11.6882L15.8289 14.4511C15.8289 14.4511 17.7432 14.8858 17.6962 14.9093C18.7466 15.1781 18.9361 15.8567 18.9067 16.409L16.014 28.0054C15.8686 28.3285 15.5395 28.8029 14.8137 28.6179C14.8372 28.6546 12.9318 28.1522 12.9318 28.1522L11.6389 31.1031L14.99 31.9374L16.8103 32.4118L15.7466 36.7052L18.3338 37.3397L19.3974 33.0934C20.1011 33.2931 20.774 33.4679 21.4468 33.6295L20.4537 37.8435L23.0394 38.4942L24.103 34.2038C28.4943 35.0366 31.8013 34.7076 33.194 30.73C34.3106 27.5236 33.1308 25.6817 30.814 24.4728C32.4815 24.0895 33.7523 22.9805 34.1034 20.6936L34.1299 20.6936ZM28.2298 28.963C27.4424 32.1753 22.0477 30.4318 20.2965 29.9956L21.7113 24.3201C23.464 24.771 29.0643 25.6347 28.2298 28.963ZM29.0349 20.6554C28.3062 23.5769 23.8224 22.1007 22.3606 21.732L23.6476 16.5618C25.1006 16.9128 29.79 17.5855 29.0349 20.6466L29.0349 20.6554Z" fill="#0D052C"/>
</svg>
