<svg width="48" height="48" viewBox="0 0 48 48" fill="none" xmlns="http://www.w3.org/2000/svg">
<g id="&#240;&#159;&#166;&#134; icon &#34;bitcoin&#34;">
<path id="Vector" d="M47.1827 29.6823C44.0447 42.2833 31.2882 49.9329 18.7036 46.797C6.11612 43.6831 -1.55127 30.8984 1.59267 18.3297C4.72339 5.73165 17.4872 -1.93414 30.0644 1.2018C42.6593 4.34655 50.3267 17.093 47.1827 29.6911L47.1827 29.6823ZM34.748 20.649C35.2137 17.5351 32.8337 15.8533 29.5752 14.7208L30.633 10.5038L28.0532 9.85316L27.0292 13.985C26.3549 13.8087 25.6526 13.6559 24.9474 13.4958L25.9744 9.32585L23.3872 8.68398L22.3309 12.9215C21.7727 12.7908 21.2305 12.6615 20.6855 12.5323L17.1361 11.6437L16.4471 14.4065C16.4471 14.4065 18.3613 14.8413 18.3143 14.8648C19.3647 15.1336 19.5543 15.8122 19.5249 16.3644L16.6322 27.9608C16.4867 28.2839 16.1576 28.7584 15.4319 28.5733C15.4554 28.61 13.5499 28.1077 13.5499 28.1077L12.2571 31.0585L15.6082 31.8928L17.4284 32.3673L16.3648 36.6606L18.9519 37.2952L20.0156 33.0488C20.7193 33.2486 21.3921 33.4233 22.065 33.5849L21.0719 37.799L23.6575 38.4497L24.7212 34.1592C29.1124 34.992 32.4194 34.663 33.8122 30.6855C34.9287 27.479 33.749 25.6371 31.4322 24.4283C33.0997 24.0449 34.3705 22.936 34.7216 20.649L34.748 20.649ZM28.848 28.9185C28.0605 32.1308 22.6659 30.3873 20.9147 29.951L22.3295 24.2755C24.0821 24.7265 29.6825 25.5901 28.848 28.9185ZM29.6531 20.6108C28.9244 23.5323 24.4406 22.0561 22.9788 21.6875L24.2658 16.5172C25.7187 16.8683 30.4082 17.541 29.6531 20.602L29.6531 20.6108Z" fill="#5CFFCE"/>
</g>
</svg>
