<svg width="30" height="48" viewBox="0 0 30 48" fill="none" xmlns="http://www.w3.org/2000/svg">
<path d="M7.51535 39.711L12.8353 39.711C13.22 39.7102 13.5888 39.4624 13.8608 39.0219C14.1328 38.5813 14.2858 37.984 14.2862 37.361L14.2862 16.9943C14.2858 16.3713 14.1328 15.7739 13.8608 15.3334C13.5888 14.8928 13.22 14.645 12.8353 14.6443L7.51535 14.6443C7.13069 14.645 6.76191 14.8928 6.48991 15.3334C6.21791 15.7739 6.0649 16.3713 6.06445 16.9943L6.06445 37.361C6.0649 37.984 6.21791 38.5813 6.48991 39.0219C6.76191 39.4624 7.13069 39.7102 7.51535 39.711ZM7.99898 17.7776L12.3517 17.7776L12.3517 36.5776L7.99898 36.5776L7.99898 17.7776Z" fill="#0D052C"/>
<path d="M24.9252 0.544434L19.6052 0.544434C19.2205 0.545159 18.8517 0.792981 18.5798 1.23353C18.3078 1.67409 18.1547 2.2714 18.1543 2.89443L18.1543 37.3611C18.1547 37.9841 18.3078 38.5814 18.5798 39.022C18.8517 39.4626 19.2205 39.7104 19.6052 39.7111L24.9252 39.7111C25.3098 39.7104 25.6786 39.4626 25.9506 39.022C26.2226 38.5814 26.3756 37.9841 26.3761 37.3611L26.3761 2.89443C26.3756 2.2714 26.2226 1.67409 25.9506 1.23353C25.6786 0.792981 25.3098 0.545159 24.9252 0.544434ZM24.4415 36.5778L20.0888 36.5778L20.0888 3.67777L24.4415 3.67777L24.4415 36.5778Z" fill="#0D052C"/>
<path d="M2.19527 0.544434L0.260742 0.544434L0.260743 47.5444L29.2787 47.5444L29.2787 44.4111L2.19527 44.4111L2.19527 0.544434Z" fill="#0D052C"/>
</svg>
