<svg width="48" height="48" viewBox="0 0 48 48" fill="none" xmlns="http://www.w3.org/2000/svg">
<path d="M43.9804 29.956L37.6827 25.8354L40.1075 21.39C40.6923 20.2801 40.9987 19.0446 41.0003 17.79L41.0003 10.7428C41.0052 8.76134 40.4313 6.82154 39.3491 5.16166C38.2669 3.50177 36.7235 2.19405 34.9084 1.39908C33.0934 0.60411 31.0857 0.356494 29.1319 0.686641C27.1781 1.01679 25.3632 1.91032 23.9102 3.25753L26.0388 5.55538C27.0456 4.62444 28.3022 4.00754 29.6546 3.78029C31.0069 3.55304 32.3961 3.72534 33.6519 4.27604C34.9078 4.82675 35.9756 5.73194 36.7245 6.88062C37.4735 8.02931 37.8709 9.37157 37.8682 10.7428L37.8682 17.79C37.8679 18.5205 37.6929 19.2404 37.3578 19.8896L33.5488 26.8729L42.2655 32.5766C42.8409 32.9531 43.3131 33.4675 43.6391 34.073C43.9651 34.6784 44.1347 35.3558 44.1323 36.0434L44.1323 41.2803L37.0852 41.2803L37.0852 44.4124L47.2644 44.4124L47.2644 36.0433C47.2675 34.8354 46.9688 33.6458 46.3953 32.5827C45.8218 31.5196 44.9917 30.6167 43.9804 29.956Z" fill="#0D052C"/>
<path d="M29.8861 33.0881L23.5884 28.9675L26.0131 24.5221C26.598 23.4121 26.9044 22.1767 26.906 20.922L26.906 13.8749C26.9039 11.1737 25.8305 8.58366 23.9213 6.6729C22.012 4.76214 19.4228 3.68674 16.7216 3.68262C11.1116 3.68262 6.54762 8.25492 6.54762 13.8749L6.54762 20.922C6.54164 22.1761 6.84469 23.4123 7.42998 24.5214L9.86789 28.9909L3.60682 33.0881C2.59674 33.7477 1.76738 34.6492 1.19399 35.7106C0.620598 36.772 0.321334 37.9598 0.323353 39.1662L0.274414 47.5445L33.1701 47.5445L33.1701 39.1754C33.1732 37.9675 32.8745 36.7779 32.3009 35.7148C31.7274 34.6517 30.8973 33.7488 29.8861 33.0881ZM30.038 44.4124L3.42467 44.4124L3.45501 39.1754C3.45265 38.4878 3.62218 37.8104 3.9482 37.2049C4.27423 36.5995 4.7464 36.0851 5.32181 35.7085L14.0017 30.0288L10.1795 23.0217C9.84818 22.3715 9.67681 21.6517 9.67967 20.922L9.67967 13.8749C9.67967 12.0059 10.4221 10.2134 11.7437 8.89184C13.0653 7.57025 14.8578 6.82778 16.7268 6.82778C18.5958 6.82778 20.3883 7.57025 21.7098 8.89184C23.0314 10.2134 23.7739 12.0059 23.7739 13.8749L23.7739 20.922C23.7736 21.6526 23.5986 22.3725 23.2635 23.0217L19.4545 30.005L28.1712 35.7086C28.7466 36.0852 29.2188 36.5996 29.5448 37.205C29.8708 37.8105 30.0404 38.4879 30.038 39.1755L30.038 44.4124Z" fill="#0D052C"/>
</svg>
