<svg width="25" height="26" viewBox="0 0 25 26" fill="none" xmlns="http://www.w3.org/2000/svg">
<g clip-path="url(#clip0_198_6271)">
<path d="M16.075 12.4775C16.075 13.24 15.5125 13.865 14.8 13.865C14.1 13.865 13.525 13.24 13.525 12.4775C13.525 11.715 14.0875 11.09 14.8 11.09C15.5125 11.09 16.075 11.715 16.075 12.4775ZM10.2375 11.09C9.525 11.09 8.9625 11.715 8.9625 12.4775C8.9625 13.24 9.5375 13.865 10.2375 13.865C10.95 13.865 11.5125 13.24 11.5125 12.4775C11.525 11.715 10.95 11.09 10.2375 11.09ZM23.4375 3.17754V25.6025C20.2884 22.8196 21.2955 23.7408 17.6375 20.34L18.3 22.6525H4.125C2.7125 22.6525 1.5625 21.5025 1.5625 20.0775V3.17754C1.5625 1.75254 2.7125 0.602539 4.125 0.602539H20.875C22.2875 0.602539 23.4375 1.75254 23.4375 3.17754ZM19.875 15.0275C19.875 11.0025 18.075 7.74004 18.075 7.74004C16.275 6.39004 14.5625 6.42754 14.5625 6.42754L14.3875 6.62754C16.5125 7.27754 17.5 8.21504 17.5 8.21504C14.5307 6.58765 11.0428 6.58735 8.1625 7.85254C7.7 8.06504 7.425 8.21504 7.425 8.21504C7.425 8.21504 8.4625 7.22754 10.7125 6.57754L10.5875 6.42754C10.5875 6.42754 8.875 6.39004 7.075 7.74004C7.075 7.74004 5.275 11.0025 5.275 15.0275C5.275 15.0275 6.325 16.84 9.0875 16.9275C9.0875 16.9275 9.55 16.365 9.925 15.89C8.3375 15.415 7.7375 14.415 7.7375 14.415C7.92139 14.5437 8.22461 14.7106 8.25 14.7275C10.3599 15.9091 13.3568 16.2962 16.05 15.165C16.4875 15.0025 16.975 14.765 17.4875 14.4275C17.4875 14.4275 16.8625 15.4525 15.225 15.915C15.6 16.39 16.05 16.9275 16.05 16.9275C18.8125 16.84 19.875 15.0275 19.875 15.0275Z" fill="white" fill-opacity="0.5"/>
</g>
<defs>
<clipPath id="clip0_198_6271">
<rect width="25" height="25" fill="white" transform="translate(0 0.602539)"/>
</clipPath>
</defs>
</svg>
