<svg width="25" height="41" viewBox="0 0 25 41" fill="none" xmlns="http://www.w3.org/2000/svg">
<path d="M10.3983 0.0444336L10.3983 5.03819L6.80546 5.03819C3.54797 5.03819 0.817436 7.88463 0.817436 11.2804L0.817436 13.7773C0.817436 17.173 2.92522 19.9695 6.03899 20.8185L18.3025 24.1143C18.9731 24.3141 19.9312 25.5625 19.9312 26.3116L19.9312 28.8085C19.9312 29.5076 19.4043 30.0569 18.7336 30.0569L6.75755 30.0569C6.1827 30.0569 5.75157 29.8572 5.55995 29.7573L5.55995 25.0632L0.769531 25.0632L0.769532 30.0569C0.769532 31.7548 1.72762 33.203 2.87732 33.952C3.97911 34.751 5.36833 35.0507 6.75755 35.0507L10.3504 35.0507L10.3504 40.0444L15.1408 40.0444L15.1408 35.0507L18.7336 35.0507C22.039 35.0507 24.7216 32.2542 24.7216 28.8085L24.7216 26.3116C24.7216 22.9158 22.6138 20.1193 19.5001 19.2704L7.2366 15.9745C6.56594 15.7748 5.60785 14.5263 5.60785 13.7773L5.60785 11.2804C5.60785 10.5813 6.1348 10.0319 6.80546 10.0319L18.7815 10.0319C19.3085 10.0319 19.7875 10.2317 19.9791 10.3316L19.9791 15.0257L24.7695 15.0257L24.7695 10.0319C24.7695 8.33407 23.8114 6.88588 22.6617 6.13682C21.5599 5.33782 20.1707 5.03819 18.7815 5.03819L15.1887 5.03819L15.1887 0.0444336L10.3983 0.0444336Z" fill="#0D052C"/>
</svg>
