<svg width="48" height="48" viewBox="0 0 48 48" fill="none" xmlns="http://www.w3.org/2000/svg">
<path fill-rule="evenodd" clip-rule="evenodd" d="M24.3877 47.5C37.3664 47.5 47.8877 36.9787 47.8877 24C47.8877 11.0213 37.3664 0.5 24.3877 0.5C11.409 0.5 0.887695 11.0213 0.887696 24C0.887696 36.9787 11.409 47.5 24.3877 47.5ZM22.2931 11.8088L22.2931 7.70667L26.3952 7.70667L26.3952 11.8088L29.4718 11.8088C30.6615 11.8088 31.8511 12.055 32.7946 12.7113C33.7791 13.3266 34.5996 14.5163 34.5996 15.911L34.5996 20.0132L30.4974 20.0132L30.4974 16.1571C30.3333 16.0751 29.9231 15.911 29.4718 15.911L19.2164 15.911C18.6421 15.911 18.1909 16.3622 18.1909 16.9365L18.1909 18.9876C18.1909 19.603 19.0113 20.6285 19.5856 20.7926L30.0872 23.5C32.7536 24.1974 34.5585 26.4946 34.5585 29.2841L34.5585 31.3352C34.5585 34.1657 32.2613 36.4629 29.4308 36.4629L26.3542 36.4629L26.3542 40.565L22.252 40.565L22.252 36.4629L19.1754 36.4629C17.9858 36.4629 16.7961 36.2167 15.8526 35.5604C14.8681 34.9451 14.0477 33.7554 14.0477 32.3607L14.0477 28.2585L18.1499 28.2585L18.1499 32.1146C18.314 32.1966 18.6831 32.3607 19.1754 32.3607L29.4308 32.3607C30.0051 32.3607 30.4564 31.9095 30.4564 31.3352L30.4564 29.2841C30.4564 28.6687 29.6359 27.6432 29.0616 27.4791L18.5601 24.7717C15.8937 24.0743 14.0887 21.7771 14.0887 18.9876L14.0887 16.9365C14.0887 14.1471 16.427 11.8088 19.2164 11.8088L22.2931 11.8088Z" fill="#5CFFCE"/>
</svg>
