<svg width="148" height="168" viewBox="0 0 148 168" fill="none" xmlns="http://www.w3.org/2000/svg">
<path fill-rule="evenodd" clip-rule="evenodd" d="M73.875 0.571289L110.5 21.2117L146.79 42.4284L147.125 84.2856L146.79 126.143L110.5 147.359L73.875 168L37.25 147.359L0.959641 126.143L0.625 84.2856L0.959641 42.4284L37.25 21.2117L73.875 0.571289ZM73.875 3.59104L109.187 23.4869L144.176 43.9383L144.499 84.2856L144.176 124.633L109.187 145.084L73.875 164.98L38.5633 145.084L3.57414 124.633L3.25149 84.2856L3.57414 43.9383L38.5633 23.4869L73.875 3.59104ZM105.998 28.7957L73.7509 10.6371L41.5033 28.7957L9.55047 47.4614L9.25583 84.2856L9.55047 121.11L41.5033 139.775L73.7509 157.934L105.998 139.775L137.951 121.11L138.246 84.2856L137.951 47.4614L105.998 28.7957Z" fill="url(#paint0_linear_434_142)" fill-opacity="0.6"/>
<path fill-rule="evenodd" clip-rule="evenodd" d="M73.875 0.571289L110.5 21.2117L146.79 42.4284L147.125 84.2856L146.79 126.143L110.5 147.359L73.875 168L37.25 147.359L0.959641 126.143L0.625 84.2856L0.959641 42.4284L37.25 21.2117L73.875 0.571289ZM73.875 3.59104L109.187 23.4869L144.176 43.9383L144.499 84.2856L144.176 124.633L109.187 145.084L73.875 164.98L38.5633 145.084L3.57414 124.633L3.25149 84.2856L3.57414 43.9383L38.5633 23.4869L73.875 3.59104ZM105.998 28.7957L73.7509 10.6371L41.5033 28.7957L9.55047 47.4614L9.25583 84.2856L9.55047 121.11L41.5033 139.775L73.7509 157.934L105.998 139.775L137.951 121.11L138.246 84.2856L137.951 47.4614L105.998 28.7957Z" fill="url(#paint1_linear_434_142)"/>
<path d="M54.9263 57.7002H91.6927V65.0535H54.9263V57.7002Z" fill="white"/>
<path d="M54.9263 105.214H91.6927V112.567H54.9263V105.214Z" fill="white"/>
<path d="M54.9263 81.457H91.6927V88.8102H54.9263V81.457Z" fill="white"/>
<path d="M54.9263 112.567V81.457H62.2796L62.2796 112.567H54.9263Z" fill="white"/>
<defs>
<linearGradient id="paint0_linear_434_142" x1="78.9814" y1="200.394" x2="268.524" y2="10.1855" gradientUnits="userSpaceOnUse">
<stop offset="0.325964" stop-color="white" stop-opacity="0.5"/>
<stop offset="1" stop-color="white" stop-opacity="0"/>
</linearGradient>
<linearGradient id="paint1_linear_434_142" x1="38.5227" y1="45.5395" x2="132.701" y2="134.344" gradientUnits="userSpaceOnUse">
<stop stop-color="#22CEA1"/>
<stop offset="0.784443" stop-color="#276D6D"/>
</linearGradient>
</defs>
</svg>
