<svg width="228" height="368" viewBox="0 0 228 368" fill="none" xmlns="http://www.w3.org/2000/svg">
<path d="M111.844 0.797268C92.4397 19.7321 92.1702 50.2382 111.035 69.436V254.84C111.035 256.417 112.383 257.732 114 257.732C115.617 257.732 116.965 256.417 116.965 254.84V69.436C126.128 59.9686 130.709 47.8714 130.709 35.7741C130.709 23.1509 125.858 10.5277 115.887 1.06025C115.348 0.534285 114.539 0.271301 113.73 0.271301C112.922 0.271301 112.383 0.271301 111.844 0.797268ZM114 63.9134C99.7163 47.8714 99.7163 23.4139 114 7.37186C128.284 23.6769 128.284 47.8714 114 63.9134ZM138.255 76.7996C138.255 86.004 141.759 94.9454 148.227 101.52V171.737L130.44 195.142C130.17 195.668 129.901 196.194 129.901 196.983V285.872C129.901 286.924 130.44 287.975 131.248 288.501C132.057 289.027 133.135 289.027 134.213 288.764L152.27 280.612C153.348 280.086 154.156 279.034 154.156 277.982V203.821L171.943 180.415C172.213 179.889 172.482 179.363 172.482 178.574V151.487L221.532 179.1V300.599L113.73 361.348L5.92908 300.599V178.837L72.2269 141.494V239.849C72.2269 240.901 72.766 241.69 73.5745 242.479C74.383 243.005 75.461 243.005 76.539 242.742L95.4043 234.59C96.4823 234.064 97.2908 233.012 97.2908 231.96V113.88C97.2908 113.091 97.0213 112.302 96.4823 111.776L75.461 91.2637C74.6525 71.8029 58.2128 56.0238 38 56.0238C36.383 56.0238 35.0355 57.3388 35.0355 58.9167C35.0355 78.6404 51.2057 94.6825 71.1489 95.4714L91.3617 115.195V229.856L78.695 235.379V136.234C78.695 135.182 78.156 134.13 77.078 133.604C76 133.078 74.922 133.078 74.1135 133.604L1.61702 174.629C0.539008 175.155 0 176.207 0 177.259V302.177C0 303.229 0.539008 304.28 1.61702 304.806L112.383 367.397C113.461 367.923 114.539 367.923 115.348 367.397L226.383 304.806C227.461 304.28 228 303.229 228 302.177V177.259C228 176.207 227.461 175.155 226.383 174.629L171.135 143.597C170.057 143.071 168.979 143.071 168.17 143.597C167.092 144.123 166.553 145.175 166.553 146.227V177.785L148.766 201.191C148.496 201.717 148.227 202.243 148.227 203.032V276.141L136.369 281.401V197.772L154.156 174.367C154.426 173.841 154.695 173.315 154.695 172.526V101.52C161.433 94.4195 164.667 85.741 164.667 76.7996C164.667 67.3321 160.894 58.1277 153.617 51.0272C152.539 49.9752 150.383 49.9752 149.305 51.0272C142.298 57.8647 138.255 67.0692 138.255 76.7996ZM41.234 62.0725C55.7872 63.6504 67.6454 74.9587 68.9929 89.4228C54.4397 87.8449 42.8511 76.5366 41.234 62.0725ZM151.461 95.9974C142.298 85.215 142.298 68.3841 151.461 57.6017C160.894 68.91 160.894 84.952 151.461 95.9974Z" fill="url(#paint0_linear_198_6247)"/>
<defs>
<linearGradient id="paint0_linear_198_6247" x1="113.391" y1="3.89469" x2="114.157" y2="334.343" gradientUnits="userSpaceOnUse">
<stop stop-color="#00F0FF"/>
<stop offset="1" stop-color="#93278F"/>
</linearGradient>
</defs>
</svg>
