<svg width="25" height="26" viewBox="0 0 25 26" fill="none" xmlns="http://www.w3.org/2000/svg">
<path d="M12.5046 7.4873C9.39917 7.4873 6.89429 9.99219 6.89429 13.0977C6.89429 16.2031 9.39917 18.708 12.5046 18.708C15.6101 18.708 18.115 16.2031 18.115 13.0977C18.115 9.99219 15.6101 7.4873 12.5046 7.4873ZM12.5046 16.7451C10.4978 16.7451 8.85718 15.1094 8.85718 13.0977C8.85718 11.0859 10.4929 9.4502 12.5046 9.4502C14.5164 9.4502 16.1521 11.0859 16.1521 13.0977C16.1521 15.1094 14.5115 16.7451 12.5046 16.7451ZM19.6531 7.25781C19.6531 7.98535 19.0671 8.56641 18.3445 8.56641C17.6169 8.56641 17.0359 7.98047 17.0359 7.25781C17.0359 6.53516 17.6218 5.94922 18.3445 5.94922C19.0671 5.94922 19.6531 6.53516 19.6531 7.25781ZM23.3689 8.58594C23.2859 6.83301 22.8855 5.28027 21.6013 4.00098C20.322 2.72168 18.7693 2.32129 17.0164 2.2334C15.2097 2.13086 9.79468 2.13086 7.98804 2.2334C6.23999 2.31641 4.68726 2.7168 3.40308 3.99609C2.1189 5.27539 1.72339 6.82812 1.6355 8.58105C1.53296 10.3877 1.53296 15.8027 1.6355 17.6094C1.71851 19.3623 2.1189 20.915 3.40308 22.1943C4.68726 23.4736 6.23511 23.874 7.98804 23.9619C9.79468 24.0645 15.2097 24.0645 17.0164 23.9619C18.7693 23.8789 20.322 23.4785 21.6013 22.1943C22.8806 20.915 23.281 19.3623 23.3689 17.6094C23.4714 15.8027 23.4714 10.3926 23.3689 8.58594ZM21.0349 19.5479C20.6541 20.5049 19.9167 21.2422 18.9548 21.6279C17.5144 22.1992 14.0964 22.0674 12.5046 22.0674C10.9128 22.0674 7.48999 22.1943 6.05444 21.6279C5.09741 21.2471 4.36011 20.5098 3.97437 19.5479C3.40308 18.1074 3.53491 14.6895 3.53491 13.0977C3.53491 11.5059 3.40796 8.08301 3.97437 6.64746C4.35522 5.69043 5.09253 4.95312 6.05444 4.56738C7.49487 3.99609 10.9128 4.12793 12.5046 4.12793C14.0964 4.12793 17.5193 4.00098 18.9548 4.56738C19.9119 4.94824 20.6492 5.68555 21.0349 6.64746C21.6062 8.08789 21.4744 11.5059 21.4744 13.0977C21.4744 14.6895 21.6062 18.1123 21.0349 19.5479Z" fill="white" fill-opacity="0.5"/>
</svg>
