<svg width="233" height="59" viewBox="0 0 233 59" fill="none" xmlns="http://www.w3.org/2000/svg">
<path d="M17.567 0.0843401C14.5192 3.12049 14.4769 8.01202 17.44 11.0903V40.8193C17.44 41.0723 17.6517 41.2831 17.9057 41.2831C18.1596 41.2831 18.3713 41.0723 18.3713 40.8193V11.0903C19.8105 9.57232 20.5301 7.63252 20.5301 5.69282C20.5301 3.66868 19.7682 1.64458 18.202 0.12651C18.1173 0.0421701 17.9903 0 17.8633 0C17.7363 0 17.6517 9.68575e-08 17.567 0.0843401ZM17.9057 10.2048C15.6622 7.63252 15.6622 3.71085 17.9057 1.13856C20.1492 3.75302 20.1492 7.63252 17.9057 10.2048ZM21.7154 12.2711C21.7154 13.747 22.2657 15.1807 23.2816 16.2349V27.494L20.4878 31.247C20.4455 31.3313 20.4031 31.4156 20.4031 31.5422V45.7952C20.4031 45.9638 20.4878 46.1325 20.6148 46.2169C20.7418 46.3012 20.9111 46.3012 21.0804 46.259L23.9165 44.9518C24.0859 44.8675 24.2129 44.6988 24.2129 44.5301V32.6385L27.0066 28.8855C27.049 28.8012 27.0913 28.7169 27.0913 28.5903V24.247L34.7954 28.6747V48.1566L17.8633 57.8976L0.93126 48.1566V28.6325L11.3445 22.6446V38.4157C11.3445 38.5843 11.4291 38.7108 11.5561 38.8373C11.6831 38.9217 11.8524 38.9217 12.0218 38.8795L14.9849 37.5723C15.1542 37.4879 15.2812 37.3193 15.2812 37.1506V18.2169C15.2812 18.0903 15.2389 17.9638 15.1542 17.8795L11.8524 14.5903C11.7254 11.4699 9.14331 8.93972 5.96851 8.93972C5.71461 8.93972 5.50291 9.15062 5.50291 9.40362C5.50291 12.5662 8.04271 15.1385 11.1752 15.265L14.3499 18.4277V36.8132L12.3604 37.6988V21.8012C12.3604 21.6325 12.2757 21.4638 12.1064 21.3795C11.9371 21.2952 11.7678 21.2952 11.6408 21.3795L0.25398 27.9578C0.0846602 28.0422 0 28.2108 0 28.3795V48.4096C0 48.5783 0.0846602 48.747 0.25398 48.8313L17.6517 58.8675C17.821 58.9518 17.9903 58.9518 18.1173 58.8675L35.5573 48.8313C35.7267 48.747 35.8113 48.5783 35.8113 48.4096V28.3795C35.8113 28.2108 35.7267 28.0422 35.5573 27.9578L26.8797 22.9819C26.7103 22.8976 26.541 22.8976 26.414 22.9819C26.2447 23.0662 26.16 23.2349 26.16 23.4036V28.4638L23.3662 32.2169C23.3239 32.3012 23.2816 32.3855 23.2816 32.512V44.2349L21.4191 45.0783V31.6687L24.2129 27.9157C24.2552 27.8313 24.2975 27.747 24.2975 27.6205V16.2349C25.3558 15.0964 25.8637 13.7048 25.8637 12.2711C25.8637 10.753 25.2711 9.27712 24.1282 8.13852C23.9589 7.96992 23.6202 7.96992 23.4509 8.13852C22.3503 9.23492 21.7154 10.7108 21.7154 12.2711ZM6.47651 9.90962C8.76231 10.1626 10.6249 11.9759 10.8365 14.2952C8.55071 14.0422 6.73051 12.2289 6.47651 9.90962ZM23.7896 15.3494C22.3503 13.6205 22.3503 10.9217 23.7896 9.19282C25.2711 11.006 25.2711 13.5783 23.7896 15.3494Z" fill="url(#paint0_linear_602_31)"/>
<path d="M171 44.9639L172.509 43.0928C173.802 44.5481 175.957 45.8786 178.802 45.8786C182.38 45.8786 183.5 44.0075 183.5 42.5108C183.5 37.5214 171.647 40.3071 171.647 33.4052C171.647 30.2036 174.578 28 178.543 28C181.56 28 183.931 28.9979 185.612 30.7026L184.104 32.4904C182.595 30.8689 180.483 30.1621 178.285 30.1621C175.914 30.1621 174.147 31.4094 174.147 33.2389C174.147 37.6046 186 35.1098 186 42.3028C186 45.0886 184.017 47.999 178.63 47.999C175.225 48.0406 172.638 46.7933 171 44.9639Z" fill="#0D052C"/>
<path d="M197.472 38.3637H208V36H195V48H208V45.6364H197.472V38.3637Z" fill="#0D052C"/>
<path d="M208 28H195V30H208V28Z" fill="#0D052C"/>
<path d="M52.3575 38.7975H62.9199V36.4338H49.9199V48.4338H62.9199V46.0703H52.3575V38.7975Z" fill="#0D052C"/>
<path d="M62.9199 28.4338H49.9199V30.4338H62.9199V28.4338Z" fill="#0D052C"/>
<path d="M105.92 28.4338C100.378 28.4338 95.9199 32.9338 95.9199 38.4338C95.9199 43.9339 100.42 48.4338 105.92 48.4338C111.462 48.4338 115.92 43.9339 115.92 38.4338C115.92 32.9338 111.462 28.4338 105.92 28.4338ZM105.92 46.3504C101.587 46.3504 98.0451 42.8088 98.0451 38.4755C98.0451 34.1422 101.587 30.6005 105.92 30.6005C110.254 30.6005 113.796 34.1422 113.796 38.4755C113.796 42.8088 110.254 46.3504 105.92 46.3504Z" fill="#0D052C"/>
<path d="M80.8711 46.3088C76.5589 46.3088 73.0345 42.7672 73.0345 38.4339C73.0345 34.1005 76.5589 30.5588 80.8711 30.5588C83.0272 30.5588 84.976 31.4338 86.4272 32.8505L87.9199 31.3505C86.0955 29.5172 83.6077 28.4338 80.8711 28.4338C75.3565 28.4338 70.9199 32.9338 70.9199 38.4339C70.9199 43.9338 75.398 48.4338 80.8711 48.4338C83.6077 48.4338 86.137 47.3089 87.9199 45.5172L86.4272 44.0172C84.976 45.4339 83.0272 46.3088 80.8711 46.3088Z" fill="#0D052C"/>
<path d="M125 48V28H132.542C134.045 28 135.285 28.2409 136.26 28.7226C137.237 29.1979 137.963 29.8391 138.441 30.6464C138.919 31.4473 139.157 32.336 139.157 33.3125C139.157 34.1718 138.993 34.8815 138.662 35.4414C138.339 36.0013 137.911 36.4441 137.377 36.7696C136.85 37.0951 136.278 37.336 135.66 37.4922V37.6875C136.321 37.7266 136.984 37.9414 137.651 38.3321C138.318 38.7227 138.876 39.2826 139.327 40.0117C139.776 40.7409 140 41.6328 140 42.6875C140 43.6901 139.754 44.5918 139.263 45.3926C138.772 46.1933 137.995 46.8282 136.935 47.2969C135.875 47.7656 134.495 48 132.795 48H125ZM127 45.8516H132.795C134.501 45.8516 135.713 45.5456 136.429 44.9336C137.152 44.3151 137.514 43.5665 137.514 42.6875C137.514 42.0105 137.328 41.3854 136.956 40.8125C136.583 40.2331 136.054 39.7709 135.365 39.4258C134.677 39.0742 133.863 38.8985 132.921 38.8985H127V45.8516ZM127 36.789H132.458C133.244 36.789 133.954 36.6458 134.586 36.3594C135.225 36.0729 135.731 35.6693 136.103 35.1484C136.482 34.6276 136.671 34.0156 136.671 33.3125C136.671 32.4336 136.341 31.6882 135.681 31.0761C135.021 30.4577 133.975 30.1484 132.542 30.1484H127V36.789Z" fill="#0D052C"/>
<path d="M149.511 48H147L154.263 28H156.737L164 48H161.489L155.577 31.164H155.423L149.511 48ZM150.439 40.1875H160.562V42.336H150.439V40.1875Z" fill="#0D052C"/>
<path d="M223.288 48H217V28H223.567C225.544 28 227.236 28.4004 228.642 29.2011C230.048 29.9954 231.127 31.138 231.876 32.6289C232.625 34.1133 233 35.8906 233 37.9609C233 40.0443 232.622 41.8379 231.866 43.3418C231.11 44.8392 230.009 45.9916 228.562 46.7989C227.117 47.5996 225.359 48 223.288 48ZM219.468 45.8516H223.129C224.815 45.8516 226.211 45.5326 227.319 44.8945C228.426 44.2565 229.252 43.3483 229.796 42.17C230.34 40.9916 230.612 39.5885 230.612 37.9609C230.612 36.3464 230.343 34.9564 229.807 33.791C229.269 32.6191 228.466 31.7207 227.398 31.0957C226.33 30.4642 225.001 30.1484 223.407 30.1484H219.468V45.8516Z" fill="#0D052C"/>
<defs>
<linearGradient id="paint0_linear_602_31" x1="17.81" y1="0.581" x2="17.9354" y2="53.5673" gradientUnits="userSpaceOnUse">
<stop stop-color="#00F0FF"/>
<stop offset="1" stop-color="#93278F"/>
</linearGradient>
</defs>
</svg>
