<svg width="210" height="70" viewBox="0 0 210 70" fill="none" xmlns="http://www.w3.org/2000/svg">
<path d="M22.6466 5.65062C19.5988 8.68677 19.5565 13.5783 22.5196 16.6566V46.3856C22.5196 46.6386 22.7313 46.8494 22.9853 46.8494C23.2392 46.8494 23.4509 46.6386 23.4509 46.3856V16.6566C24.8901 15.1386 25.6097 13.1988 25.6097 11.2591C25.6097 9.23496 24.8478 7.21086 23.2816 5.69279C23.1969 5.60845 23.0699 5.56628 22.9429 5.56628C22.8159 5.56628 22.7313 5.56628 22.6466 5.65062ZM22.9853 15.7711C20.7418 13.1988 20.7418 9.27713 22.9853 6.70484C25.2288 9.3193 25.2288 13.1988 22.9853 15.7711ZM26.795 17.8374C26.795 19.3133 27.3453 20.747 28.3612 21.8012V33.0603L25.5674 36.8133C25.5251 36.8976 25.4827 36.9819 25.4827 37.1085V51.3615C25.4827 51.5301 25.5674 51.6988 25.6944 51.7832C25.8214 51.8675 25.9907 51.8675 26.16 51.8253L28.9961 50.5181C29.1655 50.4338 29.2925 50.2651 29.2925 50.0964V38.2048L32.0862 34.4518C32.1286 34.3675 32.1709 34.2832 32.1709 34.1566V29.8133L39.875 34.241V53.7229L22.9429 63.4639L6.01085 53.7229V34.1988L16.4241 28.2109V43.982C16.4241 44.1506 16.5087 44.2771 16.6357 44.4036C16.7627 44.488 16.932 44.488 17.1014 44.4458L20.0645 43.1386C20.2338 43.0542 20.3608 42.8856 20.3608 42.7169V23.7832C20.3608 23.6566 20.3185 23.5301 20.2338 23.4458L16.932 20.1566C16.805 17.0362 14.2229 14.506 11.0481 14.506C10.7942 14.506 10.5825 14.7169 10.5825 14.9699C10.5825 18.1325 13.1223 20.7048 16.2548 20.8313L19.4295 23.994V42.3795L17.44 43.2651V27.3675C17.44 27.1988 17.3553 27.0301 17.186 26.9458C17.0167 26.8615 16.8474 26.8615 16.7204 26.9458L5.33357 33.5241C5.16425 33.6085 5.07959 33.7771 5.07959 33.9458V53.9759C5.07959 54.1446 5.16425 54.3133 5.33357 54.3976L22.7313 64.4338C22.9006 64.5181 23.0699 64.5181 23.1969 64.4338L40.6369 54.3976C40.8063 54.3133 40.8909 54.1446 40.8909 53.9759V33.9458C40.8909 33.7771 40.8063 33.6085 40.6369 33.5241L31.9593 28.5482C31.7899 28.4639 31.6206 28.4639 31.4936 28.5482C31.3243 28.6325 31.2396 28.8012 31.2396 28.9699V34.0301L28.4458 37.7832C28.4035 37.8675 28.3612 37.9518 28.3612 38.0783V49.8012L26.4987 50.6446V37.235L29.2925 33.482C29.3348 33.3976 29.3771 33.3133 29.3771 33.1868V21.8012C30.4354 20.6627 30.9433 19.2711 30.9433 17.8374C30.9433 16.3193 30.3507 14.8434 29.2078 13.7048C29.0385 13.5362 28.6998 13.5362 28.5305 13.7048C27.4299 14.8012 26.795 16.2771 26.795 17.8374ZM11.5561 15.4759C13.8419 15.7289 15.7045 17.5422 15.9161 19.8615C13.6303 19.6085 11.8101 17.7952 11.5561 15.4759ZM28.8692 20.9157C27.4299 19.1868 27.4299 16.488 28.8692 14.7591C30.3507 16.5723 30.3507 19.1446 28.8692 20.9157Z" fill="url(#paint0_linear_1_470)"/>
<path d="M143.372 53.5962L138.377 45.795H134.441V53.5962H131.985V33.9878H139.901C143.499 33.9878 146.081 36.2649 146.081 39.8914C146.081 43.4336 143.626 45.3733 140.959 45.5842L146.251 53.5962H143.372ZM143.542 39.8914C143.542 37.6565 141.933 36.1384 139.605 36.1384H134.441V43.6444H139.605C141.933 43.6444 143.542 42.0842 143.542 39.8914Z" fill="#0D052C"/>
<path d="M155.86 53.5964V33.9879H158.315V53.5964H155.86Z" fill="#0D052C"/>
<path d="M167.627 50.8132L169.109 48.9156C170.379 50.3915 172.495 51.7409 175.289 51.7409C178.803 51.7409 179.903 49.8433 179.903 48.3253C179.903 43.265 168.262 46.0903 168.262 39.0903C168.262 35.8433 171.141 33.6084 175.035 33.6084C177.998 33.6084 180.326 34.6204 181.977 36.3494L180.496 38.1626C179.014 36.518 176.94 35.8012 174.781 35.8012C172.453 35.8012 170.718 37.0662 170.718 38.9217C170.718 43.3494 182.358 40.8192 182.358 48.1144C182.358 50.9397 180.411 53.8915 175.12 53.8915C171.776 53.9337 169.236 52.6686 167.627 50.8132Z" fill="#0D052C"/>
<path d="M194.464 44.6565H204.92V42.4637H192.009V53.5963H204.92V51.4035H194.464V44.6565Z" fill="#0D052C"/>
<path d="M204.92 33.9879H192.009V36.1807H204.92V33.9879Z" fill="#0D052C"/>
<path d="M57.3572 44.6564H67.8127V42.4636H54.9443V53.5961H67.8127V51.4034H57.3572V44.6564Z" fill="#0D052C"/>
<path d="M67.855 33.9878H54.9443V36.1806H67.855V33.9878Z" fill="#0D052C"/>
<path d="M112.473 33.6505C106.843 33.6505 102.314 38.2047 102.314 43.771C102.314 49.3373 106.886 53.8915 112.473 53.8915C118.103 53.8915 122.632 49.3373 122.632 43.771C122.632 38.2047 118.103 33.6505 112.473 33.6505ZM112.473 51.783C108.071 51.783 104.473 48.1987 104.473 43.8132C104.473 39.4276 108.071 35.8433 112.473 35.8433C116.876 35.8433 120.474 39.4276 120.474 43.8132C120.474 48.1987 116.876 51.783 112.473 51.783Z" fill="#0D052C"/>
<path d="M87.0303 51.7832C82.628 51.7832 79.0299 48.1989 79.0299 43.8134C79.0299 39.4278 82.628 35.8435 87.0303 35.8435C89.2315 35.8435 91.221 36.729 92.7026 38.1628L94.2265 36.6447C92.3639 34.7893 89.8241 33.6929 87.0303 33.6929C81.4004 33.6929 76.8711 38.2471 76.8711 43.8134C76.8711 49.3796 81.4428 53.9338 87.0303 53.9338C89.8241 53.9338 92.4063 52.7953 94.2265 50.982L92.7026 49.464C91.221 50.8977 89.2315 51.7832 87.0303 51.7832Z" fill="#0D052C"/>
<defs>
<linearGradient id="paint0_linear_1_470" x1="22.8896" y1="6.14728" x2="23.015" y2="59.1336" gradientUnits="userSpaceOnUse">
<stop stop-color="#00F0FF"/>
<stop offset="1" stop-color="#93278F"/>
</linearGradient>
</defs>
</svg>
