<svg width="210" height="70" viewBox="0 0 210 70" fill="none" xmlns="http://www.w3.org/2000/svg">
<path d="M22.6466 5.65056C19.5988 8.68671 19.5565 13.5783 22.5196 16.6566V46.3855C22.5196 46.6385 22.7313 46.8494 22.9853 46.8494C23.2392 46.8494 23.4509 46.6385 23.4509 46.3855V16.6566C24.8901 15.1385 25.6097 13.1988 25.6097 11.259C25.6097 9.2349 24.8478 7.2108 23.2816 5.69273C23.1969 5.60839 23.0699 5.56622 22.9429 5.56622C22.8159 5.56622 22.7313 5.56622 22.6466 5.65056ZM22.9853 15.771C20.7418 13.1988 20.7418 9.27707 22.9853 6.70478C25.2288 9.31924 25.2288 13.1988 22.9853 15.771ZM26.795 17.8373C26.795 19.3132 27.3453 20.7469 28.3612 21.8012V33.0602L25.5674 36.8132C25.5251 36.8976 25.4827 36.9819 25.4827 37.1084V51.3614C25.4827 51.5301 25.5674 51.6988 25.6944 51.7831C25.8214 51.8674 25.9907 51.8674 26.16 51.8253L28.9961 50.518C29.1655 50.4337 29.2925 50.265 29.2925 50.0963V38.2048L32.0862 34.4518C32.1286 34.3674 32.1709 34.2831 32.1709 34.1566V29.8132L39.875 34.2409V53.7229L22.9429 63.4638L6.01085 53.7229V34.1988L16.4241 28.2108V43.9819C16.4241 44.1506 16.5087 44.2771 16.6357 44.4036C16.7627 44.4879 16.932 44.4879 17.1014 44.4457L20.0645 43.1385C20.2338 43.0542 20.3608 42.8855 20.3608 42.7168V23.7831C20.3608 23.6566 20.3185 23.5301 20.2338 23.4457L16.932 20.1566C16.805 17.0361 14.2229 14.506 11.0481 14.506C10.7942 14.506 10.5825 14.7168 10.5825 14.9698C10.5825 18.1325 13.1223 20.7048 16.2548 20.8313L19.4295 23.9939V42.3795L17.44 43.265V27.3674C17.44 27.1988 17.3553 27.0301 17.186 26.9457C17.0167 26.8614 16.8474 26.8614 16.7204 26.9457L5.33357 33.5241C5.16425 33.6084 5.07959 33.7771 5.07959 33.9457V53.9759C5.07959 54.1445 5.16425 54.3132 5.33357 54.3976L22.7313 64.4337C22.9006 64.518 23.0699 64.518 23.1969 64.4337L40.6369 54.3976C40.8063 54.3132 40.8909 54.1445 40.8909 53.9759V33.9457C40.8909 33.7771 40.8063 33.6084 40.6369 33.5241L31.9593 28.5482C31.7899 28.4638 31.6206 28.4638 31.4936 28.5482C31.3243 28.6325 31.2396 28.8012 31.2396 28.9698V34.0301L28.4458 37.7831C28.4035 37.8674 28.3612 37.9518 28.3612 38.0783V49.8012L26.4987 50.6445V37.2349L29.2925 33.4819C29.3348 33.3976 29.3771 33.3132 29.3771 33.1867V21.8012C30.4354 20.6626 30.9433 19.271 30.9433 17.8373C30.9433 16.3192 30.3507 14.8433 29.2078 13.7048C29.0385 13.5361 28.6998 13.5361 28.5305 13.7048C27.4299 14.8012 26.795 16.2771 26.795 17.8373ZM11.5561 15.4759C13.8419 15.7289 15.7045 17.5421 15.9161 19.8614C13.6303 19.6084 11.8101 17.7951 11.5561 15.4759ZM28.8692 20.9156C27.4299 19.1867 27.4299 16.4879 28.8692 14.759C30.3507 16.5722 30.3507 19.1445 28.8692 20.9156Z" fill="url(#paint0_linear_1_53)"/>
<path d="M143.372 53.5961L138.377 45.7949H134.441V53.5961H131.985V33.9877H139.901C143.499 33.9877 146.081 36.2648 146.081 39.8913C146.081 43.4335 143.626 45.3732 140.959 45.5841L146.251 53.5961H143.372ZM143.542 39.8913C143.542 37.6563 141.933 36.1383 139.605 36.1383H134.441V43.6443H139.605C141.933 43.6443 143.542 42.0841 143.542 39.8913Z" fill="white"/>
<path d="M155.86 53.5962V33.9877H158.315V53.5962H155.86Z" fill="white"/>
<path d="M167.627 50.8131L169.109 48.9155C170.379 50.3914 172.495 51.7408 175.289 51.7408C178.803 51.7408 179.903 49.8432 179.903 48.3251C179.903 43.2649 168.262 46.0902 168.262 39.0902C168.262 35.8432 171.141 33.6083 175.035 33.6083C177.998 33.6083 180.326 34.6203 181.977 36.3492L180.496 38.1625C179.014 36.5179 176.94 35.801 174.781 35.801C172.453 35.801 170.718 37.0661 170.718 38.9215C170.718 43.3492 182.358 40.8191 182.358 48.1143C182.358 50.9396 180.411 53.8914 175.12 53.8914C171.776 53.9336 169.236 52.6685 167.627 50.8131Z" fill="white"/>
<path d="M194.464 44.6563H204.92V42.4636H192.009V53.5961H204.92V51.4033H194.464V44.6563Z" fill="white"/>
<path d="M204.92 33.9877H192.009V36.1805H204.92V33.9877Z" fill="white"/>
<path d="M57.3572 44.6563H67.8127V42.4635H54.9443V53.596H67.8127V51.4033H57.3572V44.6563Z" fill="white"/>
<path d="M67.855 33.9877H54.9443V36.1804H67.855V33.9877Z" fill="white"/>
<path d="M112.473 33.6503C106.843 33.6503 102.314 38.2045 102.314 43.7708C102.314 49.3371 106.886 53.8913 112.473 53.8913C118.103 53.8913 122.632 49.3371 122.632 43.7708C122.632 38.2045 118.103 33.6503 112.473 33.6503ZM112.473 51.7829C108.071 51.7829 104.473 48.1985 104.473 43.813C104.473 39.4274 108.071 35.8431 112.473 35.8431C116.876 35.8431 120.474 39.4274 120.474 43.813C120.474 48.1985 116.876 51.7829 112.473 51.7829Z" fill="white"/>
<path d="M87.0303 51.7831C82.628 51.7831 79.0299 48.1987 79.0299 43.8132C79.0299 39.4276 82.628 35.8433 87.0303 35.8433C89.2315 35.8433 91.221 36.7288 92.7026 38.1626L94.2265 36.6445C92.3639 34.7891 89.8241 33.6927 87.0303 33.6927C81.4004 33.6927 76.8711 38.2469 76.8711 43.8132C76.8711 49.3794 81.4428 53.9337 87.0303 53.9337C89.8241 53.9337 92.4063 52.7951 94.2265 50.9818L92.7026 49.4638C91.221 50.8975 89.2315 51.7831 87.0303 51.7831Z" fill="white"/>
<defs>
<linearGradient id="paint0_linear_1_53" x1="22.8896" y1="6.14722" x2="23.015" y2="59.1336" gradientUnits="userSpaceOnUse">
<stop stop-color="#00F0FF"/>
<stop offset="1" stop-color="#93278F"/>
</linearGradient>
</defs>
</svg>
