<svg width="30" height="48" viewBox="0 0 30 48" fill="none" xmlns="http://www.w3.org/2000/svg">
<path d="M2.19527 3.67777L9.9334 3.67777L9.9334 0.544434L0.260742 0.544434L0.260742 16.2111L2.19527 16.2111L2.19527 3.67777Z" fill="#0D052C"/>
<path d="M9.93347 16.211L9.93347 6.81104L4.12988 6.81104L4.12988 16.211L9.93347 16.211ZM6.06441 9.94437L7.99894 9.94437L7.99894 13.0777L6.06441 13.0777L6.06441 9.94437Z" fill="#0D052C"/>
<path d="M19.1221 3.67777L27.3438 3.67777L27.3438 16.2111L29.2784 16.2111L29.2784 0.544434L19.1221 0.544434L19.1221 3.67777Z" fill="#0D052C"/>
<path d="M25.4091 16.211L25.4091 6.81104L19.6055 6.81104L19.6055 16.211L25.4091 16.211ZM21.54 9.94437L23.4745 9.94437L23.4745 13.0777L21.54 13.0777L21.54 9.94437Z" fill="#0D052C"/>
<path d="M9.9334 44.411L2.19527 44.411L2.19527 31.8777L0.260742 31.8777L0.260742 47.5444L9.9334 47.5444L9.9334 44.411Z" fill="#0D052C"/>
<path d="M9.93347 31.8777L4.12988 31.8777L4.12988 41.2777L9.93347 41.2777L9.93347 31.8777ZM7.99894 38.1444L6.06441 38.1444L6.06441 35.011L7.99894 35.011L7.99894 38.1444Z" fill="#0D052C"/>
<path d="M27.3438 44.411L19.1221 44.411L19.1221 47.5444L29.2784 47.5444L29.2784 31.8777L27.3438 31.8777L27.3438 44.411Z" fill="#0D052C"/>
<path d="M15.7373 28.7444L23.4754 28.7444L23.4754 35.0111L25.41 35.0111L25.41 25.6111L15.7373 25.6111L15.7373 28.7444Z" fill="#0D052C"/>
<path d="M25.4097 41.2778L25.4097 38.1444L13.8025 38.1444L13.8025 25.6111L4.12988 25.6111L4.12988 28.7444L11.868 28.7444L11.868 41.2778L25.4097 41.2778Z" fill="#0D052C"/>
<path d="M13.8027 6.81104L11.8682 6.81104L11.8682 16.211L13.8027 16.211L13.8027 6.81104Z" fill="#0D052C"/>
<path d="M4.12988 22.4777L17.6716 22.4777L17.6716 6.81104L15.7371 6.81104L15.7371 19.3444L4.12988 19.3444L4.12988 22.4777Z" fill="#0D052C"/>
<path d="M25.4091 19.3445L19.6055 19.3445L19.6055 22.4778L25.4091 22.4778L25.4091 19.3445Z" fill="#0D052C"/>
<path d="M21.54 31.8777L19.6055 31.8777L19.6055 35.011L21.54 35.011L21.54 31.8777Z" fill="#0D052C"/>
<path d="M17.6718 31.8777L15.7373 31.8777L15.7373 35.011L17.6718 35.011L17.6718 31.8777Z" fill="#0D052C"/>
</svg>
