<svg width="25" height="18" viewBox="0 0 25 18" fill="none" xmlns="http://www.w3.org/2000/svg">
<path d="M23.8559 3.37681C23.5833 2.35034 22.7801 1.54192 21.7602 1.26757C19.9117 0.769043 12.4993 0.769043 12.4993 0.769043C12.4993 0.769043 5.087 0.769043 3.23843 1.26757C2.2186 1.54196 1.41539 2.35034 1.14277 3.37681C0.647461 5.23736 0.647461 9.11922 0.647461 9.11922C0.647461 9.11922 0.647461 13.0011 1.14277 14.8616C1.41539 15.8881 2.2186 16.6628 3.23843 16.9372C5.087 17.4357 12.4993 17.4357 12.4993 17.4357C12.4993 17.4357 19.9117 17.4357 21.7602 16.9372C22.7801 16.6628 23.5833 15.8881 23.8559 14.8616C24.3512 13.0011 24.3512 9.11922 24.3512 9.11922C24.3512 9.11922 24.3512 5.23736 23.8559 3.37681ZM10.0751 12.6437V5.59478L16.2703 9.1193L10.0751 12.6437Z" fill="white" fill-opacity="0.5"/>
</svg>
