<svg width="25" height="26" viewBox="0 0 25 26" fill="none" xmlns="http://www.w3.org/2000/svg">
<path d="M23.8564 7.37706C23.5838 6.35058 22.7805 5.54216 21.7607 5.26781C19.9122 4.76929 12.4998 4.76929 12.4998 4.76929C12.4998 4.76929 5.08749 4.76929 3.23892 5.26781C2.21909 5.5422 1.41587 6.35058 1.14326 7.37706C0.647949 9.2376 0.647949 13.1195 0.647949 13.1195C0.647949 13.1195 0.647949 17.0013 1.14326 18.8619C1.41587 19.8883 2.21909 20.6631 3.23892 20.9374C5.08749 21.436 12.4998 21.436 12.4998 21.436C12.4998 21.436 19.9121 21.436 21.7607 20.9374C22.7805 20.6631 23.5838 19.8883 23.8564 18.8619C24.3517 17.0013 24.3517 13.1195 24.3517 13.1195C24.3517 13.1195 24.3517 9.2376 23.8564 7.37706ZM10.0756 16.6439V9.59502L16.2708 13.1195L10.0756 16.6439Z" fill="#0D052C" fill-opacity="0.8"/>
</svg>
